<?xml version="1.0" standalone="no"?>
<!DOCTYPE svg PUBLIC "-//W3C//DTD SVG 20010904//EN"
 "http://www.w3.org/TR/2001/REC-SVG-20010904/DTD/svg10.dtd">
<svg version="1.0" xmlns="http://www.w3.org/2000/svg"
 width="500.000000pt" height="500.000000pt" viewBox="0 0 500.000000 500.000000"
 preserveAspectRatio="xMidYMid meet">
<metadata>
Created by potrace 1.14, written by Peter Selinger 2001-2017
</metadata>
<g transform="translate(0.000000,500.000000) scale(0.100000,-0.100000)"
fill="#000000" stroke="none">
<path d="M2175 4509 c-22 -4 -80 -13 -130 -19 -91 -12 -232 -45 -315 -75 -131
-46 -315 -167 -401 -262 -160 -177 -249 -438 -249 -728 1 -308 89 -538 280
-726 123 -122 316 -235 590 -344 63 -25 129 -52 145 -59 17 -8 80 -30 140 -51
200 -67 304 -125 335 -186 42 -81 14 -152 -72 -189 -73 -31 -299 -40 -408 -15
-41 9 -97 21 -125 27 -47 9 -172 44 -240 67 -16 5 -68 22 -115 36 -47 15 -123
42 -170 60 -99 39 -190 59 -222 50 -85 -26 -160 -192 -212 -469 -28 -148 -47
-370 -36 -419 15 -69 60 -114 160 -160 171 -80 515 -165 756 -187 60 -6 134
-15 164 -21 78 -15 758 -23 845 -11 350 52 601 142 772 276 110 86 234 248
289 375 117 271 106 652 -28 916 -75 150 -201 289 -343 380 -101 65 -274 158
-338 181 -198 73 -268 97 -307 109 -287 87 -379 138 -401 218 -15 58 19 122
83 155 87 44 383 42 547 -4 101 -28 155 -46 211 -69 132 -55 162 -66 202 -71
102 -13 181 83 281 341 79 202 125 472 94 547 -33 78 -120 131 -299 182 -25 8
-51 17 -58 21 -17 10 -208 52 -276 60 -32 4 -86 13 -119 20 -33 7 -103 16
-155 20 -52 4 -149 13 -215 21 -130 15 -590 18 -660 3z"/>
</g>
</svg>
